HIERARCHY
ROOT Hips
{
  OFFSET -306.21 86.0442 287.205
  CHANNELS 6 Xposition Yposition Zposition Zrotation Xrotation Yrotation
  JOINT ToSpine
  {
    OFFSET -0.0105055 1.38907 -7.13956
    CHANNELS 3 Zrotation Xrotation Yrotation
    JOINT Spine
    {
      OFFSET 0.0105055 10 1
      CHANNELS 3 Zrotation Xrotation Yrotation
      JOINT Spine1
      {
        OFFSET 0 12 1.60637
        CHANNELS 3 Zrotation Xrotation Yrotation
        JOINT Neck
        {
          OFFSET 0 27 2.26658
          CHANNELS 3 Zrotation Xrotation Yrotation
          JOINT Head
          {
            OFFSET 0 9 2.12705
            CHANNELS 3 Zrotation Xrotation Yrotation
            End Site
            {
              OFFSET 0 11 2
            }
          }
        }
        JOINT LeftShoulder
        {
          OFFSET 8 19.6109 2.86452
          CHANNELS 3 Zrotation Xrotation Yrotation
          JOINT LeftArm
          {
            OFFSET 12 1 0.681055
            CHANNELS 3 Zrotation Xrotation Yrotation
            JOINT LeftForeArm
            {
              OFFSET 19 0 -1.52608
              CHANNELS 3 Zrotation Xrotation Yrotation
              JOINT LeftHand
              {
                OFFSET 23 0 0
                CHANNELS 3 Zrotation Xrotation Yrotation
                End Site
                {
                  OFFSET 10 0 0
                }
              }
            }
          }
        }
        JOINT RightShoulder
        {
          OFFSET -8 19.6109 2.86452
          CHANNELS 3 Zrotation Xrotation Yrotation
          JOINT RightArm
          {
            OFFSET -12 1 0.681055
            CHANNELS 3 Zrotation Xrotation Yrotation
            JOINT RightForeArm
            {
              OFFSET -19 0 -1.52608
              CHANNELS 3 Zrotation Xrotation Yrotation
              JOINT RightHand
              {
                OFFSET -23 0 0
                CHANNELS 3 Zrotation Xrotation Yrotation
                End Site
                {
                  OFFSET -10 0 0
                }
              }
            }
          }
        }
      }
    }
  }
  JOINT LeftUpLeg
  {
    OFFSET 9 -7.17245 0
    CHANNELS 3 Zrotation Xrotation Yrotation
    JOINT LeftLeg
    {
      OFFSET 0 -44.1113 0
      CHANNELS 3 Zrotation Xrotation Yrotation
      JOINT LeftFoot
      {
        OFFSET 0 -36.1829 0
        CHANNELS 3 Zrotation Xrotation Yrotation
        JOINT LeftToeBase
        {
          OFFSET 0 -4.84184 13
          CHANNELS 3 Zrotation Xrotation Yrotation
          End Site
          {
            OFFSET 0 1 6
          }
        }
      }
    }
  }
  JOINT RightUpLeg
  {
    OFFSET -9 -7.17245 0
    CHANNELS 3 Zrotation Xrotation Yrotation
    JOINT RightLeg
    {
      OFFSET 0 -44.0551 0
      CHANNELS 3 Zrotation Xrotation Yrotation
      JOINT RightFoot
      {
        OFFSET 0 -36.1469 0
        CHANNELS 3 Zrotation Xrotation Yrotation
        JOINT RightToeBase
        {
          OFFSET 0 -4.92256 13
          CHANNELS 3 Zrotation Xrotation Yrotation
          End Site
          {
            OFFSET 0 1 6
          }
        }
      }
    }
  }
}
MOTION
Frames:	8
Frame Time:	0.0333333
-306.21 86.0442 287.205 -6.22646 -9.06965 118.064 0 0 0 10.8462 13.727 10.4609 -10.9406 -4.56396 13.14 0.703727 -21.9578 -0.908831 -2.88788 9.33182 0.10654 -9.64455 1.63299 -6.07718 -49.433 24.9154 56.5263 59.9671 -31.4424 -106.782 27.8944 2.45413 9.85886 3.07591 1.70672 11.7029 52.5995 -22.8038 34.3276 -16.8851 -7.26533 112.618 -2.19017 -0.111797 5.84357 9.06137 -53.0276 9.27942 180 85.8189 -168.559 27.3122 -16.7234 4.0905 1.61083 -18.5083 -4.50528 -1.29086 1.78361 -9.22165 -1.89377e-007 33.1094 13.7838 -25.4368 -11.2895 -2.55585 11.3151 -38.6264 1.02106 
-296.027 88.8221 278.404 -5.68864 -8.20246 123.743 0 0 0 12.6066 8.43454 11.2109 -14.5963 1.28277 14.6332 4.99333 -29.1222 -4.90476 -3.88572 17.0301 -2.72446 -2.69199 1.01897 -5.89354 -52.4448 25.1133 55.5305 59.4381 -32.0768 -107.411 21.2396 0.54256 2.89302 -2.36606 0.799299 8.9905 54.2285 -22.571 31.0412 -15.5785 -7.76355 115.851 3.47779 0.0836743 2.75565 2.064 -53.7181 0.0557467 -2.99776e-008 74.3947 11.2839 26.2265 -15.2073 3.56235 1.71618 -16.5563 -6.21887 -0.841299 15.3458 -7.25003 0.458867 17.0521 14.7982 -19.685 9.83986 1.71124 9.13556 -32.8201 -0.482045 
-285.865 90.1581 269.682 -6.71616 -7.58491 125.172 0 0 0 13.5087 4.08797 13.5188 -20.1993 2.40069 17.3872 14.6008 -28.2198 -7.94077 -7.01652 17.4337 -3.76779 3.51465 0.581956 -7.30885 -55.5618 25.2891 57.2057 58.7167 -33.9104 -108.726 12.3996 0.00755333 0.069532 -0.176762 1.19179 10.7933 46.9177 -19.8144 23.6247 -22.3481 -11.7399 116.332 -4.01409 -0.115083 3.28308 0.481089 -52.1603 -0.6726 -5.38816e-008 53.5579 3.93132 25.0662 -8.05749 1.794 1.51332 -19.5538 -2.62174 -0.281025 21.2901 -5.85574 -2.31869 15.0047 18.5154 -29.2431 12.6842 3.32172 4.72108 -18.1643 -5.00404 
-276.427 90.4909 261.156 -5.49316 -5.65111 123.506 0 0 0 14.0052 2.63408 15.6677 -22.257 5.32584 19.8959 12.7396 -27.2533 -8.85128 -3.011 17.0825 -6.03942 -0.0611708 0.858236 -6.56503 -51.6922 25.0824 56.0676 56.2083 -35.2083 -111.099 2.82654 -0.00228716 -0.0927056 0.206255 1.155 9.82055 46.2392 -10.5898 22.3754 -18.9764 -9.23779 115.025 0.972663 0.0485597 5.71604 3.02548 -45.4046 6.43829 -9.80411e-008 32.8873 -6.86362 21.0761 -4.61024 0.858073 1.40318 -19.2426 -1.29632 -2.42101 26.6718 -6.53633 -1.97621 19.6956 14.4221 -27.6668 5.76295 1.4202 5.09159 -20.1191 -6.46461 
-267.341 89.9204 252.777 -2.74801 -12.4125 129.155 0 0 0 19.0154 -2.79318 14.5773 -18.8432 5.09113 16.747 13.3995 -23.5896 -9.51289 -4.7477 14.9456 -5.73569 -6.92993 1.39406 -6.03772 -49.8106 24.196 52.4635 57.7812 -34.2258 -109.517 -4.56947 -0.078544 1.96846 4.50067 1.8777 11.5303 45.1959 -1.2523 15.1074 -15.5679 -6.08656 110.836 3.94808 0.285253 8.26176 8.01104 -46.6512 8.90565 -0.0178457 24.5836 -19.0509 14.6072 -5.75669 0.738426 0.701595 -10.792 0.101252 7.49348 25.6586 -9.31718 0.268185 26.4907 2.96112 -15.3927 -0.851552 -0.115081 2.12115 -7.85579 -0.512483 
-259.902 90.375 244.397 0.778444 -4.08104 127.282 0 0 0 14.8494 2.19747 13.3796 -18.9188 8.3425 17.1983 13.8981 -19.9297 -8.87813 -4.84304 13.6734 -4.78681 -15.0846 1.93778 -5.31442 -46.9787 22.559 44.4056 59.7936 -30.1057 -106.278 -6.69104 -0.106873 1.82808 10.0462 2.79219 12.4731 47.9591 7.13538 6.0477 -16.1001 -3.73809 102.728 4.2974 0.248311 6.61086 2.45429 -33.7363 4.63 -1.32926 19.9099 -5.64948 8.25089 -2.71133 0.195597 0.748551 -8.48277 -1.12567 -0.425163 31.0726 -11.8344 -6.96928e-009 37.0808 1.89834 -28.6048 0.424703 0.108275 5.73054 -22.3972 -4.83923 
-252.074 90.2503 237.147 0.700373 -5.44036 130.272 0 0 0 11.4056 1.71939 10.5123 -14.94 4.84379 13.415 15.7074 -15.5788 -7.97269 -5.60057 11.6924 -3.0875 -24.4029 2.80166 -5.62532 -41.469 19.4307 34.2874 58.215 -26.7939 -105.607 -5.8104 0.193094 -3.8035 15.3454 3.36845 11.6045 52.3449 12.7435 -3.374 -17.0158 0.0583255 89.8094 3.77817 0.227527 6.89007 3.236 -35.4131 12.0822 -0.0626451 30.7048 -14.7368 14.0024 9.68086 -1.19166 1.19315 -14.6079 -1.86742 1.29894 21.2624 -12.8621 1.08153e-007 54.6863 -5.85796 -31.8181 -2.45134 -0.698798 5.0897 -19.7813 -5.16835 
-244.507 88.8937 229.647 0.037811 -4.37276 133.491 0 0 0 7.36955 1.34838 5.98643 -12.9837 3.13371 8.63536 19.2297 -13.6785 -5.87126 -6.96523 9.49108 0.0191121 -29.9833 2.96215 -4.7026 -36.2672 16.9114 16.8349 58.3772 -24.5437 -104.347 -6.49713 0.378981 -6.66951 20.5195 4.20054 11.9884 54.424 12.4272 -10.3975 -20.8659 5.59461 75.6538 2.3668 0.171259 8.27615 0.953577 -35.6201 10.0568 6.95897e-007 48.1611 -15.7257 16.0539 -9.18756 1.29836 0.266773 -7.35923 1.22503 -1.03947 10.6777 -13.8247 1.83842e-006 72.0953 -12.6707 -31.5035 -8.40421 -2.37443 4.14978 -15.8212 -6.60915 
